<?xml version="1.0" encoding="UTF-8" standalone="no"?>
<svg width="100" height="100" viewBox="0 0 100 100" xmlns="http://www.w3.org/2000/svg">
    <path d="M50,0 C22.4,0 0,22.4 0,50 C0,72.1 14.4,90.7 34.3,97.3 C36.8,97.8 37.7,96.3 37.7,95 C37.7,93.8 37.7,90.6 37.7,86.5 C23.7,89.5 20.8,79.9 20.8,79.9 C18.5,74.1 15.2,72.6 15.2,72.6 C10.6,69.5 15.5,69.5 15.5,69.5 C20.5,69.8 23.2,74.6 23.2,74.6 C27.7,82.2 34.9,80.1 37.9,78.8 C38.4,75.6 39.7,73.4 41.1,72.1 C30,70.8 18.2,66.5 18.2,47.3 C18.2,41.8 20.2,37.4 23.3,33.9 C22.7,32.6 21,27.5 23.7,20.6 C23.7,20.6 27.9,19.3 37.7,25.7 C41.7,24.6 46,24.1 50.3,24.1 C54.6,24.1 58.9,24.6 62.9,25.7 C72.7,19.3 76.9,20.6 76.9,20.6 C79.6,27.5 77.9,32.6 77.3,33.9 C80.4,37.4 82.4,41.8 82.4,47.3 C82.4,66.5 70.6,70.8 59.5,72.1 C61.2,73.7 62.9,76.8 62.9,81.6 C62.9,88.5 62.9,93.3 62.9,95 C62.9,96.3 63.8,97.8 66.3,97.3 C86.2,90.7 100.6,72.1 100.6,50 C100,22.4 77.6,0 50,0 Z" fill="#FFFFFF"/>
</svg>
