<?xml version="1.0" encoding="UTF-8" standalone="no"?>
<svg width="600" height="600" viewBox="0 0 600 600" xmlns="http://www.w3.org/2000/svg">
  <defs>
    <!-- Gradients -->
    <linearGradient id="redGradient" x1="0%" y1="0%" x2="100%" y2="100%">
      <stop offset="0%" style="stop-color:#FF3A2F;stop-opacity:1" />
      <stop offset="100%" style="stop-color:#C4161C;stop-opacity:1" />
    </linearGradient>
    
    <linearGradient id="blueGradient" x1="0%" y1="0%" x2="100%" y2="100%">
      <stop offset="0%" style="stop-color:#0071C5;stop-opacity:1" />
      <stop offset="100%" style="stop-color:#00559D;stop-opacity:1" />
    </linearGradient>
    
    <linearGradient id="darkGradient" x1="0%" y1="0%" x2="100%" y2="100%">
      <stop offset="0%" style="stop-color:#2A2A2A;stop-opacity:1" />
      <stop offset="100%" style="stop-color:#111111;stop-opacity:1" />
    </linearGradient>
    
    <linearGradient id="whiteGradient" x1="0%" y1="0%" x2="0%" y2="100%">
      <stop offset="0%" style="stop-color:#FFFFFF;stop-opacity:1" />
      <stop offset="100%" style="stop-color:#E0E0E0;stop-opacity:1" />
    </linearGradient>
    
    <!-- Filters -->
    <filter id="shadow" x="-10%" y="-10%" width="120%" height="120%">
      <feGaussianBlur in="SourceAlpha" stdDeviation="3" />
      <feOffset dx="2" dy="2" result="offsetblur" />
      <feComponentTransfer>
        <feFuncA type="linear" slope="0.3" />
      </feComponentTransfer>
      <feMerge>
        <feMergeNode />
        <feMergeNode in="SourceGraphic" />
      </feMerge>
    </filter>
    
    <filter id="innerShadow" x="-20%" y="-20%" width="140%" height="140%">
      <feGaussianBlur in="SourceAlpha" stdDeviation="4" />
      <feOffset dx="0" dy="4" result="offsetblur" />
      <feComposite in="SourceGraphic" in2="offsetblur" operator="over" />
    </filter>
    
    <!-- Clip paths -->
    <clipPath id="hexClip">
      <path d="M300,100 C310,100 320,105 325,110 L520,205 C530,210 535,220 535,230 L535,370 C535,380 530,390 520,395 L325,490 C320,495 310,500 300,500 L300,500 C290,500 280,495 275,490 L80,395 C70,390 65,380 65,370 L65,230 C65,220 70,210 80,205 L275,110 C280,105 290,100 300,100 Z" />
    </clipPath>
  </defs>
  
  <!-- Background hexagon with rounded corners -->
  <path d="M300,100 C310,100 320,105 325,110 L520,205 C530,210 535,220 535,230 L535,370 C535,380 530,390 520,395 L325,490 C320,495 310,500 300,500 L300,500 C290,500 280,495 275,490 L80,395 C70,390 65,380 65,370 L65,230 C65,220 70,210 80,205 L275,110 C280,105 290,100 300,100 Z" 
        fill="url(#darkGradient)" 
        stroke="#444444" 
        stroke-width="1" />
  
  <!-- Subtle pattern overlay -->
  <g clip-path="url(#hexClip)" opacity="0.05">
    <rect x="0" y="0" width="600" height="600" fill="#FFFFFF" />
    <!-- Grid pattern -->
    <path d="M0,0 L600,600 M20,0 L620,600 M40,0 L640,600 M60,0 L660,600 M80,0 L680,600 M100,0 L700,600 M120,0 L720,600" 
          stroke="#FFFFFF" stroke-width="0.5" />
    <path d="M600,0 L0,600 M580,0 L-20,600 M560,0 L-40,600 M540,0 L-60,600 M520,0 L-80,600 M500,0 L-100,600 M480,0 L-120,600" 
          stroke="#FFFFFF" stroke-width="0.5" />
  </g>
  
  <!-- Stylized ML Stack layers with depth effect -->
  <g transform="translate(300, 300)">
    <!-- Layer 1 - Bottom -->
    <rect x="-180" y="40" width="360" height="60" rx="8" ry="8" fill="url(#redGradient)" filter="url(#shadow)" transform="skewX(-12)" />
    
    <!-- Layer 2 - Middle -->
    <rect x="-160" y="-10" width="320" height="60" rx="8" ry="8" fill="url(#whiteGradient)" filter="url(#shadow)" transform="skewX(-12)" />
    
    <!-- Layer 3 - Top -->
    <rect x="-140" y="-60" width="280" height="60" rx="8" ry="8" fill="url(#blueGradient)" filter="url(#shadow)" transform="skewX(-12)" />
    
    <!-- Subtle highlights on edges -->
    <rect x="-180" y="40" width="360" height="4" rx="2" ry="2" fill="#FFFFFF" opacity="0.3" transform="skewX(-12)" />
    <rect x="-160" y="-10" width="320" height="4" rx="2" ry="2" fill="#FFFFFF" opacity="0.3" transform="skewX(-12)" />
    <rect x="-140" y="-60" width="280" height="4" rx="2" ry="2" fill="#FFFFFF" opacity="0.3" transform="skewX(-12)" />
  </g>
  
  <!-- AMD-inspired triangle logo with refined edges -->
  <g transform="translate(300, 220)">
    <path d="M0,-80 C2,-80 4,-79 5,-77 L70,38 C72,42 70,46 65,46 L-65,46 C-70,46 -72,42 -70,38 L-5,-77 C-4,-79 -2,-80 0,-80 Z" 
          fill="url(#redGradient)" filter="url(#shadow)" />
    <!-- Inner highlight -->
    <path d="M0,-70 L-60,36 L60,36 Z" fill="#FFFFFF" opacity="0.1" />
  </g>
  
  <!-- Text elements with refined typography -->
  <g transform="translate(300, 380)" filter="url(#shadow)">
    <text x="0" y="0" 
          font-family="'Helvetica Neue', Arial, sans-serif" 
          font-size="60" 
          font-weight="700" 
          fill="#FFFFFF" 
          text-anchor="middle"
          letter-spacing="3">ML STACK</text>
    <!-- Text shadow/highlight effect -->
    <text x="0" y="2" 
          font-family="'Helvetica Neue', Arial, sans-serif" 
          font-size="60" 
          font-weight="700" 
          fill="#000000" 
          text-anchor="middle"
          letter-spacing="3"
          opacity="0.1">ML STACK</text>
  </g>
  
  <g transform="translate(300, 130)" filter="url(#shadow)">
    <text x="0" y="0" 
          font-family="'Helvetica Neue', Arial, sans-serif" 
          font-size="36" 
          font-weight="300" 
          font-style="italic" 
          fill="#FFFFFF" 
          text-anchor="middle"
          letter-spacing="4">STAN'S</text>
  </g>
  
  <!-- Accent lines with subtle glow -->
  <line x1="150" y1="440" x2="450" y2="440" stroke="#FFFFFF" stroke-width="1.5" stroke-opacity="0.4" />
  <line x1="200" y1="170" x2="400" y2="170" stroke="#FFFFFF" stroke-width="1.5" stroke-opacity="0.4" />
  
  <!-- Subtle circuit-like pattern elements -->
  <g opacity="0.15">
    <path d="M80,300 L120,300 L120,250 L150,250" stroke="#FFFFFF" stroke-width="1.5" fill="none" />
    <path d="M520,300 L480,300 L480,250 L450,250" stroke="#FFFFFF" stroke-width="1.5" fill="none" />
    <path d="M80,300 L120,300 L120,350 L150,350" stroke="#FFFFFF" stroke-width="1.5" fill="none" />
    <path d="M520,300 L480,300 L480,350 L450,350" stroke="#FFFFFF" stroke-width="1.5" fill="none" />
    
    <circle cx="150" cy="250" r="3" fill="#FFFFFF" />
    <circle cx="450" cy="250" r="3" fill="#FFFFFF" />
    <circle cx="150" cy="350" r="3" fill="#FFFFFF" />
    <circle cx="450" cy="350" r="3" fill="#FFFFFF" />
  </g>
</svg>
